<svg width="326" height="44" viewBox="0 0 326 44" fill="none" xmlns="http://www.w3.org/2000/svg">
<path d="M250.042 0.739258H253.771L262.864 0.804674L267.509 0.870095L268.556 0.935508L268.359 1.91677L267.377 5.64554L266.527 8.98182L265.612 12.5144L264.63 16.1777L263.584 20.1027L262.929 22.7849V22.9156L263.387 22.9811H264.238L265.415 19.3832L266.462 16.3086L268.032 11.5985L269.144 8.32761L270.191 5.25306L271.565 1.13176L271.63 1.00093H279.48L287.068 1.06634L287.003 1.6551L285.564 7.60806L284.517 11.7947L282.62 19.5794L281.835 22.9811L281.77 23.1774H283.077L283.732 21.1495L284.517 18.5328L285.368 15.8506L286.022 13.8227L287.461 9.30889L288.442 6.10348L289.554 2.57094L290.012 1.19718L290.077 1.13176H293.544L305.712 1.19718L308.46 1.2626L308.394 1.72051L307.937 3.42136L306.563 8.06596L305.451 11.8602L304.469 15.1964L303.227 19.4486L301.983 23.7661L301.329 26.0557L300.021 30.5695L298.778 34.8871L298.516 35.5412H296.292L271.041 35.2795V34.8216L271.826 30.8312L272.088 29.4574H270.191L269.995 30.1115L269.406 31.6816L268.948 32.9899L268.097 35.1487L268.032 35.2141H264.957L241.145 34.9524L240.229 34.8871L240.491 33.8404L241.734 29.5228L242.781 25.9248L243.828 22.2615L244.94 18.4019L246.117 14.2152L247.164 10.6172L248.079 7.47723L248.734 5.25306L249.976 0.804674L250.042 0.739258Z" fill="#F97216"/>
<path d="M307.544 11.0752H312.319L318.469 11.1406L319.45 11.2715L320.039 11.5331L320.431 11.991L320.758 12.9069L321.609 17.8132L321.87 18.729L322.197 19.3832L322.394 19.6448V19.7757L322.655 19.9065L323.963 20.4953L324.617 21.0186L325.075 21.542L325.599 22.5886L325.861 23.6353L325.926 24.0278V25.2707L325.73 26.5137L325.272 28.1491L323.963 32.6629L323.178 35.3449L322.982 35.7374H317.749L317.422 35.6067L317.095 34.3637L316.637 33.317L316.048 32.3358L315.263 31.4853L314.544 30.8312L313.628 30.2424L312.842 29.8499L311.861 29.5228L311.142 29.392L310.422 29.3266H309.768L308.656 29.4574L307.479 29.7845L306.431 30.3078L305.516 30.9621L304.861 31.5508L304.143 32.4666L303.554 33.4479L303.161 34.4292L302.834 35.5412L302.768 35.6067H301.787L300.479 35.5412L300.937 33.8404L301.852 30.7003L302.638 28.0183L303.75 24.0932L305.189 19.1215L306.17 15.7198L306.759 13.7573L307.217 12.2527L307.544 11.0752Z" fill="#F97216"/>
<path d="M309.702 30.7656H310.422L311.665 30.9618L312.712 31.3544L313.562 31.8777L314.478 32.6627L315.067 33.3823L315.459 34.0365L315.786 34.7561L316.113 35.999L316.179 36.4569V37.3728L315.982 38.6156L315.525 39.9894L315.067 40.7091L314.478 41.3632L313.889 41.952L312.908 42.6061L312.123 42.9332L311.534 43.1295L310.488 43.2603H309.833L308.59 43.064L307.609 42.6715L306.889 42.279L306.17 41.7557L305.516 41.1015L304.861 40.1203L304.469 39.2698L304.207 38.354L304.077 37.3728L304.142 36.2607L304.403 35.0177L304.796 34.0365L305.189 33.3823L305.647 32.7935L306.039 32.3356L306.824 31.7469L307.609 31.289L308.721 30.8965L309.702 30.7656Z" fill="#EFB549"/>
<path d="M247.36 36.457H252.201L259.396 36.5879L259.266 37.7L259.004 38.6812L258.48 39.7933L257.761 40.7091L257.041 41.3633L256.126 41.9521L255.21 42.3446L254.424 42.5408L253.901 42.6063H252.92L251.808 42.41L250.958 42.0829L249.911 41.4941L249.257 40.9708L248.799 40.4474L248.276 39.7279L247.753 38.6812L247.425 37.6345L247.36 37.3075V36.457Z" fill="#EFB549"/>
<path d="M0.228405 35.0914L5.07059 10.8804C5.67968 7.89596 7.03488 5.45964 9.13619 3.57148C11.268 1.68334 14.1459 0.739258 17.77 0.739258C19.0186 0.739258 20.1759 0.845846 21.2417 1.05903C22.3381 1.24175 23.2973 1.54629 24.1197 1.97265L20.1911 9.14454C19.4601 8.7487 18.6836 8.5507 17.8613 8.5507C17.039 8.5507 16.3995 8.7791 15.9427 9.23596C15.5164 9.69275 15.1965 10.4236 14.9834 11.4286L14.7093 12.7991L14.2068 16.8647L10.5523 35.0914H0.228405ZM0 19.0117L1.50747 11.4743H20.3738L18.8663 19.0117H0ZM32.977 35.5482C30.2362 35.5482 27.8455 35.0762 25.8051 34.1321C23.7646 33.1575 22.1811 31.8023 21.0542 30.0665C19.9579 28.3306 19.4097 26.3054 19.4097 23.9909C19.4097 21.2501 20.0797 18.7985 21.4197 16.6363C22.7597 14.474 24.6021 12.7686 26.9471 11.52C29.2921 10.2713 31.972 9.64704 34.987 9.64704C37.7583 9.64704 40.1489 10.1343 42.1589 11.1088C44.1993 12.0529 45.7677 13.3929 46.8641 15.1288C47.9908 16.8342 48.5542 18.8594 48.5542 21.2044C48.5542 23.9452 47.8842 26.3968 46.5443 28.5591C45.2043 30.7212 43.3618 32.4267 41.0169 33.6753C38.7023 34.9239 36.0224 35.5482 32.977 35.5482ZM33.5709 27.5083C34.4845 27.5083 35.2763 27.28 35.9463 26.8232C36.6162 26.3358 37.134 25.6659 37.4994 24.8132C37.8953 23.93 38.0932 22.8945 38.0932 21.7069C38.0932 20.641 37.7735 19.7121 37.134 18.9203C36.4944 18.0981 35.5808 17.6869 34.3931 17.6869C33.5099 17.6869 32.7182 17.9305 32.0177 18.4178C31.3477 18.8747 30.8147 19.5446 30.4188 20.4278C30.0534 21.2805 29.8707 22.3007 29.8707 23.4884C29.8707 24.6761 30.1904 25.6507 30.83 26.412C31.5 27.1429 32.4136 27.5083 33.5709 27.5083ZM63.8475 35.5482C61.1066 35.5482 58.716 35.0762 56.6756 34.1321C54.6351 33.1575 53.0515 31.8023 51.9247 30.0665C50.8284 28.3306 50.2802 26.3054 50.2802 23.9909C50.2802 21.2501 50.9502 18.7985 52.2902 16.6363C53.6301 14.474 55.4726 12.7686 57.8176 11.52C60.1626 10.2713 62.8425 9.64704 65.8575 9.64704C68.6288 9.64704 71.0194 10.1343 73.0294 11.1088C75.0698 12.0529 76.6381 13.3929 77.7346 15.1288C78.8613 16.8342 79.4247 18.8594 79.4247 21.2044C79.4247 23.9452 78.7547 26.3968 77.4147 28.5591C76.0748 30.7212 74.2323 32.4267 71.8874 33.6753C69.5728 34.9239 66.8929 35.5482 63.8475 35.5482ZM64.4413 27.5083C65.355 27.5083 66.1468 27.28 66.8168 26.8232C67.4867 26.3358 68.0044 25.6659 68.3699 24.8132C68.7658 23.93 68.9637 22.8945 68.9637 21.7069C68.9637 20.641 68.644 19.7121 68.0044 18.9203C67.3649 18.0981 66.4513 17.6869 65.2636 17.6869C64.3804 17.6869 63.5886 17.9305 62.8881 18.4178C62.2182 18.8747 61.6852 19.5446 61.2893 20.4278C60.9239 21.2805 60.7412 22.3007 60.7412 23.4884C60.7412 24.6761 61.0609 25.6507 61.7005 26.412C62.3705 27.1429 63.2841 27.5083 64.4413 27.5083ZM91.7025 35.5482C90.0582 35.5482 88.4441 35.1067 86.8609 34.2235C85.2769 33.3098 83.9675 32.0003 82.9319 30.2949C81.9272 28.559 81.4246 26.4576 81.4246 23.9909C81.4246 21.92 81.7748 20.0167 82.4756 18.2808C83.1755 16.5449 84.1353 15.0374 85.3535 13.7583C86.6018 12.4489 88.0179 11.4439 89.6011 10.7434C91.2153 10.0125 92.9207 9.64704 94.7182 9.64704C96.3926 9.64704 97.8699 9.93638 99.1491 10.515C100.459 11.0632 101.479 12.0072 102.21 13.3472C102.971 14.6568 103.351 16.4383 103.351 18.6919C103.351 20.8237 103.107 22.8945 102.62 24.9045C102.133 26.9145 101.402 28.7265 100.428 30.3406C99.453 31.9242 98.2349 33.188 96.7731 34.1321C95.3113 35.0762 93.6214 35.5482 91.7025 35.5482ZM95.5859 27.417C96.4993 27.417 97.2913 27.1886 97.9611 26.7317C98.6309 26.2445 99.1491 25.5745 99.5142 24.7218C99.9102 23.8691 100.108 22.8641 100.108 21.7069C100.108 20.5496 99.7733 19.6055 99.1035 18.8747C98.4639 18.1438 97.5651 17.7783 96.4081 17.7783C95.5248 17.7783 94.7328 18.0219 94.0329 18.5092C93.3623 18.966 92.8294 19.6208 92.4334 20.4735C92.0684 21.3262 91.8859 22.3312 91.8859 23.4884C91.8859 24.6457 92.2053 25.5898 92.8449 26.3207C93.5147 27.0516 94.4281 27.417 95.5859 27.417ZM97.9611 35.0914L98.6464 31.711L100.336 22.5748L101.661 13.53L104.128 1.19607H114.452L107.691 35.0914H97.9611Z" fill="#F97216"/>
<path d="M113.405 35.0914L118.247 10.8804C118.856 7.89596 120.211 5.45964 122.313 3.57148C124.444 1.68334 127.322 0.739258 130.947 0.739258C132.195 0.739258 133.353 0.845846 134.418 1.05903C135.514 1.24175 136.474 1.54629 137.296 1.97265L133.367 9.14454C132.636 8.7487 131.86 8.5507 131.038 8.5507C130.216 8.5507 129.576 8.7791 129.119 9.23596C128.693 9.69275 128.373 10.4236 128.16 11.4286L127.886 12.7991L127.383 16.8647L123.729 35.0914H113.405ZM113.176 19.0117L114.684 11.4743H133.551L132.042 19.0117H113.176ZM132.637 35.0914L139.398 1.19607H149.722L142.961 35.0914H132.637ZM162.442 35.5482C159.701 35.5482 157.295 35.0762 155.224 34.1321C153.184 33.188 151.585 31.848 150.428 30.1122C149.271 28.3763 148.692 26.3358 148.692 23.9909C148.692 21.2501 149.331 18.7985 150.61 16.6363C151.89 14.474 153.686 12.7686 156 11.52C158.346 10.2713 161.071 9.64704 164.178 9.64704C166.858 9.64704 169.142 10.1191 171.03 11.0632C172.918 12.0072 174.365 13.3016 175.369 14.946C176.375 16.5906 176.877 18.494 176.877 20.6562C176.877 21.4175 176.817 22.1637 176.694 22.8945C176.603 23.6254 176.481 24.3259 176.329 24.9959H156.915L157.874 20.0167H171.578L167.284 21.3414C167.528 20.3669 167.512 19.5446 167.238 18.8747C166.995 18.1742 166.569 17.6413 165.959 17.2758C165.35 16.8799 164.604 16.6819 163.721 16.6819C162.473 16.6819 161.483 17.017 160.752 17.6869C160.021 18.3569 159.488 19.2249 159.153 20.2907C158.848 21.3567 158.696 22.4682 158.696 23.6254C158.696 25.1786 159.107 26.2902 159.93 26.9601C160.782 27.5997 162.015 27.9195 163.63 27.9195C164.574 27.9195 165.518 27.7825 166.462 27.5083C167.406 27.2038 168.274 26.7622 169.066 26.1836L173.359 32.4419C171.654 33.5992 169.873 34.4062 168.015 34.863C166.188 35.3198 164.33 35.5482 162.442 35.5482ZM192.063 35.5482C189.322 35.5482 186.916 35.0762 184.846 34.1321C182.805 33.188 181.206 31.848 180.049 30.1122C178.892 28.3763 178.313 26.3358 178.313 23.9909C178.313 21.2501 178.953 18.7985 180.231 16.6363C181.511 14.474 183.307 12.7686 185.622 11.52C187.967 10.2713 190.692 9.64704 193.798 9.64704C196.478 9.64704 198.762 10.1191 200.65 11.0632C202.539 12.0072 203.985 13.3016 204.99 14.946C205.995 16.5906 206.498 18.494 206.498 20.6562C206.498 21.4175 206.437 22.1637 206.314 22.8945C206.223 23.6254 206.102 24.3259 205.949 24.9959H186.536L187.495 20.0167H201.198L196.904 21.3414C197.148 20.3669 197.133 19.5446 196.859 18.8747C196.615 18.1742 196.189 17.6413 195.579 17.2758C194.971 16.8799 194.224 16.6819 193.341 16.6819C192.093 16.6819 191.103 17.017 190.372 17.6869C189.641 18.3569 189.108 19.2249 188.774 20.2907C188.469 21.3567 188.318 22.4682 188.318 23.6254C188.318 25.1786 188.728 26.2902 189.55 26.9601C190.403 27.5997 191.636 27.9195 193.25 27.9195C194.194 27.9195 195.138 27.7825 196.082 27.5083C197.026 27.2038 197.894 26.7622 198.686 26.1836L202.98 32.4419C201.275 33.5992 199.493 34.4062 197.635 34.863C195.808 35.3198 193.95 35.5482 192.063 35.5482ZM218.761 35.5482C216.629 35.5482 214.817 35.1523 213.325 34.3605C211.832 33.5687 210.782 32.4114 210.173 30.8888C209.564 29.3356 209.473 27.4779 209.899 25.3157L214.056 4.4851H224.38L220.223 25.27C220.07 26.1227 220.161 26.747 220.497 27.1429C220.832 27.5388 221.349 27.7367 222.05 27.7367C222.476 27.7367 222.857 27.6911 223.192 27.5997C223.558 27.4779 223.938 27.3256 224.334 27.1429L225.521 34.0864C224.578 34.6042 223.512 34.9696 222.324 35.1828C221.167 35.4264 219.979 35.5482 218.761 35.5482ZM207.706 19.0117L209.214 11.4743H228.08L226.572 19.0117H207.706Z" fill="#EFB549"/>
</svg>
