<svg width="86" height="44" viewBox="0 0 86 44" fill="none" xmlns="http://www.w3.org/2000/svg">
<path d="M10.0423 0.739258H13.7709L22.8642 0.804674L27.5087 0.870095L28.5557 0.935508L28.3594 1.91677L27.3775 5.64554L26.5268 8.98182L25.6118 12.5144L24.6299 16.1777L23.5837 20.1027L22.9294 22.7849V22.9156L23.3873 22.9811H24.238L25.4154 19.3832L26.4625 16.3086L28.0318 11.5985L29.144 8.32761L30.191 5.25306L31.5648 1.13176L31.63 1.00093H39.4799L47.0683 1.06634L47.0031 1.6551L45.5642 7.60806L44.5171 11.7947L42.6202 19.5794L41.8348 22.9811L41.7696 23.1774H43.0773L43.7316 21.1495L44.5171 18.5328L45.3678 15.8506L46.0221 13.8227L47.4611 9.30889L48.4421 6.10348L49.5543 2.57094L50.0122 1.19718L50.0774 1.13176H53.5445L65.7121 1.19718L68.4596 1.2626L68.3945 1.72051L67.9365 3.42136L66.5627 8.06596L65.4505 11.8602L64.4695 15.1964L63.2269 19.4486L61.9835 23.7661L61.3292 26.0557L60.0214 30.5695L58.778 34.8871L58.5165 35.5412H56.292L31.0409 35.2795V34.8216L31.8256 30.8312L32.0879 29.4574H30.191L29.9947 30.1115L29.4056 31.6816L28.9476 32.9899L28.097 35.1487L28.0318 35.2141H24.9575L1.14534 34.9524L0.229492 34.8871L0.491059 33.8404L1.73447 29.5228L2.78069 25.9248L3.82773 22.2615L4.93994 18.4019L6.11735 14.2152L7.16357 10.6172L8.07942 7.47723L8.73372 5.25306L9.97631 0.804674L10.0423 0.739258Z" fill="#F97216"/>
<path d="M67.5437 11.0752H72.3193L78.4687 11.1406L79.4498 11.2715L80.0389 11.5331L80.4308 11.991L80.7584 12.9069L81.609 17.8132L81.8698 18.729L82.1973 19.3832L82.3937 19.6448V19.7757L82.6553 19.9065L83.963 20.4953L84.6173 21.0186L85.0753 21.542L85.5992 22.5886L85.8607 23.6353L85.9259 24.0278V25.2707L85.7296 26.5137L85.2716 28.1491L83.963 32.6629L83.1784 35.3449L82.982 35.7374H77.7493L77.4217 35.6067L77.095 34.3637L76.637 33.317L76.0479 32.3358L75.2633 31.4853L74.5438 30.8312L73.6279 30.2424L72.8424 29.8499L71.8614 29.5228L71.1419 29.392L70.4224 29.3266H69.7682L68.6559 29.4574L67.4785 29.7845L66.4315 30.3078L65.5156 30.9621L64.8613 31.5508L64.1427 32.4666L63.5536 33.4479L63.1608 34.4292L62.8341 35.5412L62.7681 35.6067H61.787L60.4792 35.5412L60.9372 33.8404L61.8522 30.7003L62.6377 28.0183L63.7499 24.0932L65.1889 19.1215L66.1699 15.7198L66.759 13.7573L67.217 12.2527L67.5437 11.0752Z" fill="#F97216"/>
<path d="M69.7021 30.7656H70.4224L71.665 30.9618L72.7121 31.3544L73.5619 31.8777L74.4778 32.6627L75.0669 33.3823L75.4588 34.0365L75.7864 34.7561L76.1131 35.999L76.1791 36.4569V37.3728L75.9819 38.6156L75.5248 39.9894L75.0669 40.7091L74.4778 41.3632L73.8887 41.952L72.9076 42.6061L72.123 42.9332L71.5339 43.1295L70.4876 43.2603H69.8333L68.5899 43.064L67.6089 42.6715L66.8894 42.279L66.1699 41.7557L65.5156 41.1015L64.8613 40.1203L64.4694 39.2698L64.207 38.354L64.0767 37.3728L64.1419 36.2607L64.4034 35.0177L64.7961 34.0365L65.1889 33.3823L65.6468 32.7935L66.0387 32.3356L66.8242 31.7469L67.6089 31.289L68.7211 30.8965L69.7021 30.7656Z" fill="#EFB549"/>
<path d="M7.35986 36.457H12.2007L19.3963 36.5879L19.2659 37.7L19.0044 38.6812L18.4805 39.7933L17.761 40.7091L17.0415 41.3633L16.1256 41.9521L15.2098 42.3446L14.4243 42.5408L13.9012 42.6063H12.9202L11.8079 42.41L10.9581 42.0829L9.91106 41.4941L9.25675 40.9708L8.79882 40.4474L8.27571 39.7279L7.7526 38.6812L7.42504 37.6345L7.35986 37.3075V36.457Z" fill="#EFB549"/>
</svg>
